<?xml version="1.0" standalone="no"?>
<!DOCTYPE svg PUBLIC "-//W3C//DTD SVG 20010904//EN"
 "http://www.w3.org/TR/2001/REC-SVG-20010904/DTD/svg10.dtd">
<svg version="1.0" xmlns="http://www.w3.org/2000/svg"
 width="1000.000000pt" height="1000.000000pt" viewBox="0 0 1000.000000 1000.000000"
 preserveAspectRatio="xMidYMid meet">
<metadata>
</metadata>
<g transform="translate(0.000000,1000.000000) scale(0.100000,-0.100000)"
fill="#000000" stroke="none">
<path d="M4488 9895 c-2 -2 -93 -6 -203 -9 -301 -10 -454 -18 -590 -31 -95 -9
-150 -14 -220 -20 -38 -3 -81 -8 -95 -10 -14 -2 -53 -7 -87 -10 -98 -10 -192
-23 -358 -51 -129 -21 -198 -34 -359 -70 -11 -3 -34 -8 -51 -11 -67 -11 -383
-107 -498 -149 -143 -54 -390 -171 -503 -239 -527 -318 -879 -782 -1102 -1450
-38 -114 -98 -327 -108 -384 -3 -14 -11 -51 -19 -81 -8 -31 -17 -73 -20 -95
-4 -22 -8 -48 -11 -57 -7 -23 -8 -33 -38 -223 -25 -161 -30 -194 -41 -295 -3
-30 -8 -71 -11 -90 -5 -39 -9 -86 -19 -205 -3 -44 -8 -93 -10 -110 -2 -16 -7
-82 -10 -145 -4 -63 -8 -140 -10 -170 -27 -423 -27 -1532 0 -1985 2 -38 7
-113 10 -165 3 -52 8 -120 10 -150 3 -30 7 -78 9 -106 8 -89 31 -300 41 -374
2 -14 6 -50 10 -80 3 -30 13 -95 22 -145 8 -49 17 -99 18 -111 2 -11 8 -45 14
-75 6 -30 13 -65 15 -79 2 -14 14 -68 26 -120 12 -52 23 -102 25 -110 47 -216
168 -556 271 -763 288 -580 710 -968 1332 -1221 100 -41 363 -131 407 -140 11
-2 72 -18 136 -35 63 -17 133 -33 155 -37 21 -3 42 -8 45 -9 8 -5 324 -61 399
-71 343 -44 398 -50 630 -69 41 -3 111 -8 155 -11 44 -2 109 -7 145 -9 392
-26 1613 -26 1990 0 25 1 98 6 162 9 64 4 125 8 135 10 10 2 64 7 118 10 55 3
109 8 120 10 11 2 56 7 100 11 44 4 87 9 95 10 8 1 40 6 70 10 30 3 66 8 80
10 14 3 59 9 100 15 41 6 136 22 210 36 74 14 149 28 165 31 79 13 385 97 510
138 133 45 365 139 430 175 17 9 59 32 95 50 354 185 686 500 903 855 171 282
321 666 402 1030 8 39 18 83 21 99 2 16 7 33 9 36 3 4 7 25 11 46 3 22 12 71
19 109 23 118 46 268 60 390 3 28 8 64 10 80 7 50 14 118 30 290 3 30 7 79 10
108 4 48 9 117 20 317 27 473 27 1517 0 1985 -2 33 -6 107 -10 165 -3 58 -7
123 -10 145 -2 22 -7 76 -10 120 -3 44 -8 94 -10 110 -3 17 -7 53 -10 80 -10
97 -35 298 -41 330 -2 10 -6 37 -9 60 -5 36 -15 91 -31 180 -3 17 -14 73 -25
125 -11 52 -22 109 -25 125 -3 17 -9 44 -14 60 -6 17 -24 82 -41 145 -104 383
-254 717 -443 990 -17 25 -35 50 -41 56 -5 6 -19 23 -30 38 -77 107 -285 315
-395 396 -18 14 -45 34 -59 46 -176 141 -518 311 -847 419 -115 38 -389 111
-484 129 -31 6 -126 24 -160 31 -76 15 -202 35 -250 40 -30 4 -62 8 -70 10 -8
3 -37 7 -65 10 -27 3 -63 7 -80 10 -16 2 -61 7 -100 10 -38 4 -81 8 -95 10
-37 6 -123 14 -225 21 -49 3 -108 7 -130 9 -49 4 -267 16 -390 22 -99 4 -1282
12 -1287 8z"/>
</g>
</svg>
